<svg width="28" height="28" viewBox="0 0 28 28" fill="none" xmlns="http://www.w3.org/2000/svg">
<path fill-rule="evenodd" clip-rule="evenodd" d="M17.9665 2.33325C18.1998 3.61659 17.6165 4.89992 16.9165 5.83325C16.2165 6.76659 14.9331 7.58325 13.6498 7.46659C13.4165 6.18325 13.9998 5.01659 14.6998 4.08325C15.5165 3.14992 16.7998 2.44992 17.9665 2.33325ZM21.6998 22.6333C22.2831 21.6999 22.6331 21.1166 23.0998 20.0666C19.4831 18.6666 18.8998 13.5333 22.5165 11.6666C21.4665 10.2666 19.9498 9.56658 18.4331 9.56658C17.3831 9.56658 16.6831 9.79992 15.9831 10.0333C15.3998 10.2666 14.9331 10.3833 14.3498 10.3833C13.6498 10.3833 13.1831 10.1499 12.4831 9.91659C11.7831 9.68325 11.0831 9.44992 10.2665 9.44992C8.63314 9.44992 6.88314 10.3833 5.83314 12.1333C4.31647 14.4666 4.54981 19.0166 6.99981 22.7499C8.04981 24.1499 9.21647 25.6666 10.7331 25.6666C11.4331 25.6666 11.7831 25.4333 12.2498 25.3166C12.8331 25.0833 13.4165 24.8499 14.3498 24.8499C15.3998 24.8499 15.8665 25.0833 16.4498 25.3166C16.9165 25.5499 17.2665 25.6666 17.9665 25.6666C19.5998 25.6666 20.7665 23.9166 21.6998 22.6333Z" stroke="black" stroke-width="1.5" stroke-miterlimit="10" stroke-linecap="round" stroke-linejoin="round"/>
</svg>
