<svg width="21" height="20" viewBox="0 0 21 20" fill="none" xmlns="http://www.w3.org/2000/svg">
<path d="M16.3333 4.99992H14.6667C14.6667 2.66659 12.8333 0.833252 10.5 0.833252C8.16667 0.833252 6.33333 2.66659 6.33333 4.99992H4.66667C3.75 4.99992 3 5.74992 3 6.66658V16.6666C3 17.5833 3.75 18.3333 4.66667 18.3333H16.3333C17.25 18.3333 18 17.5833 18 16.6666V6.66658C18 5.74992 17.25 4.99992 16.3333 4.99992ZM10.5 2.49992C11.9167 2.49992 13 3.58325 13 4.99992H8C8 3.58325 9.08333 2.49992 10.5 2.49992ZM16.3333 16.6666H4.66667V6.66658H16.3333V16.6666ZM10.5 9.99992C9.08333 9.99992 8 8.91658 8 7.49992H6.33333C6.33333 9.83325 8.16667 11.6666 10.5 11.6666C12.8333 11.6666 14.6667 9.83325 14.6667 7.49992H13C13 8.91658 11.9167 9.99992 10.5 9.99992Z" fill="#9605AC"/>
</svg>
