<svg width="12" height="15" viewBox="0 0 12 15" fill="none" xmlns="http://www.w3.org/2000/svg">
<path fill-rule="evenodd" clip-rule="evenodd" d="M5.74194 0.5H5.16129V1.04545V1.75207C3.09419 2.19084 1.35484 3.88583 1.35484 6.05826V10.0146C1.35484 10.2209 1.27712 10.3355 1.17662 10.4108C1.0599 10.4983 0.860233 10.5682 0.580645 10.5682H0V11.1136V11.6082V12.1536H0.580645H11.4194H12V11.6082V11.1136V10.5682H11.4194C11.1396 10.5682 10.94 10.4983 10.8233 10.4109C10.7229 10.3356 10.6452 10.2209 10.6452 10.0146V6.05826C10.6452 3.88583 8.90582 2.19084 6.83871 1.75207V1.04545V0.5H6.25806H5.74194ZM7.93548 13.0455C7.93548 13.7727 7.13911 14.5 5.98891 14.5C4.83871 14.5 4.06452 13.7727 4.06452 13.0455H7.93548Z" fill="white"/>
</svg>
