<svg width="13" height="13" viewBox="0 0 13 13" fill="none" xmlns="http://www.w3.org/2000/svg">
<path d="M4.06283 11.9163C3.53921 11.9163 3.09234 11.7313 2.7222 11.3611C2.35206 10.991 2.16699 10.5441 2.16699 10.0205V2.97884C2.16699 2.45523 2.35206 2.00836 2.7222 1.63822C3.09234 1.26808 3.53921 1.08301 4.06283 1.08301H10.8337V9.20801C10.608 9.20801 10.4162 9.28709 10.2584 9.44526C10.1006 9.60342 10.0215 9.79517 10.0212 10.0205C10.0208 10.2458 10.0999 10.4378 10.2584 10.5963C10.4169 10.7548 10.6087 10.8337 10.8337 10.833V11.9163H4.06283ZM4.33366 8.12467H5.41699V2.16634H4.33366V8.12467ZM4.06283 10.833H9.11387C9.0597 10.7066 9.01691 10.5781 8.98549 10.4473C8.95408 10.3166 8.93819 10.1743 8.93783 10.0205C8.93783 9.87606 8.95137 9.73613 8.97845 9.60072C9.00553 9.4653 9.05067 9.3344 9.11387 9.20801H4.06283C3.8281 9.20801 3.63401 9.28709 3.48053 9.44526C3.32706 9.60342 3.25033 9.79517 3.25033 10.0205C3.25033 10.2552 3.32706 10.4493 3.48053 10.6028C3.63401 10.7563 3.8281 10.833 4.06283 10.833Z" fill="#9605AC"/>
</svg>
