<svg width="19" height="18" viewBox="0 0 19 18" fill="none" xmlns="http://www.w3.org/2000/svg">
<path d="M16.8635 7.023L15.593 2.57625C15.5661 2.48224 15.5093 2.39954 15.4312 2.34067C15.3532 2.28181 15.258 2.24998 15.1603 2.25H12.125L12.4813 6.528C12.4868 6.59676 12.5085 6.66322 12.5448 6.7219C12.581 6.78058 12.6307 6.8298 12.6898 6.8655C12.9823 7.04025 13.5538 7.36275 14 7.5C14.762 7.73475 15.875 7.65 16.5095 7.572C16.5712 7.56403 16.6304 7.54269 16.683 7.50947C16.7356 7.47626 16.7803 7.43197 16.814 7.3797C16.8477 7.32742 16.8696 7.26843 16.8781 7.20682C16.8867 7.14521 16.8817 7.08248 16.8635 7.023Z" stroke="#9605AC" stroke-width="1.5"/>
<path d="M10.9998 7.5C11.4258 7.36875 11.9658 7.0695 12.2673 6.891C12.3374 6.84903 12.3943 6.78815 12.4315 6.71532C12.4686 6.6425 12.4845 6.56068 12.4773 6.47925L12.1248 2.25H6.87477L6.52227 6.47925C6.5149 6.5608 6.5307 6.64278 6.56785 6.71575C6.605 6.78872 6.66199 6.84973 6.73227 6.89175C7.03377 7.0695 7.57377 7.36875 7.99977 7.5C9.11952 7.845 9.88002 7.845 10.9998 7.5Z" stroke="#9605AC" stroke-width="1.5"/>
<path d="M3.40692 2.57625L2.13642 7.02375C2.11848 7.08313 2.11369 7.14571 2.12237 7.20714C2.13104 7.26856 2.15299 7.32736 2.18667 7.37945C2.22035 7.43155 2.26497 7.47568 2.31742 7.5088C2.36987 7.54192 2.4289 7.56323 2.49042 7.57125C3.12417 7.65 4.23792 7.734 4.99992 7.5C5.44617 7.36275 6.01842 7.04025 6.31017 6.86625C6.36929 6.83048 6.41904 6.78114 6.45529 6.72232C6.49155 6.6635 6.51328 6.59689 6.51867 6.528L6.87492 2.25H3.83967C3.74188 2.24998 3.64675 2.28181 3.56867 2.34067C3.49059 2.39954 3.43381 2.48224 3.40692 2.57625Z" stroke="#9605AC" stroke-width="1.5"/>
<path d="M2.75 7.5V14.25C2.75 14.6478 2.90804 15.0294 3.18934 15.3107C3.47064 15.592 3.85218 15.75 4.25 15.75H14.75C15.1478 15.75 15.5294 15.592 15.8107 15.3107C16.092 15.0294 16.25 14.6478 16.25 14.25V7.5" stroke="#9605AC" stroke-width="1.5"/>
</svg>
