<svg width="12" height="12" viewBox="0 0 12 12" fill="none" xmlns="http://www.w3.org/2000/svg">
<path d="M5.99805 8.33881V7.07031" stroke="#9605AC" stroke-width="1.5" stroke-linecap="round" stroke-linejoin="round"/>
<path fill-rule="evenodd" clip-rule="evenodd" d="M9.095 2.66504C9.94 2.66504 10.62 3.35004 10.62 4.19504V5.91504C9.39 6.63504 7.765 7.07004 5.995 7.07004C4.225 7.07004 2.605 6.63504 1.375 5.91504V4.19004C1.375 3.34504 2.06 2.66504 2.905 2.66504H9.095Z" stroke="#9605AC" stroke-width="1.5" stroke-linecap="round" stroke-linejoin="round"/>
<path d="M7.74805 2.663V2.48C7.74805 1.87 7.25305 1.375 6.64305 1.375H5.35305C4.74305 1.375 4.24805 1.87 4.24805 2.48V2.663" stroke="#9605AC" stroke-width="1.5" stroke-linecap="round" stroke-linejoin="round"/>
<path d="M1.3877 7.74121L1.4822 8.99571C1.5462 9.84121 2.2507 10.4947 3.0982 10.4947H8.8977C9.7452 10.4947 10.4497 9.84121 10.5137 8.99571L10.6082 7.74121" stroke="#9605AC" stroke-width="1.5" stroke-linecap="round" stroke-linejoin="round"/>
</svg>
