<svg width="21" height="20" viewBox="0 0 21 20" fill="none" xmlns="http://www.w3.org/2000/svg">
<path fill-rule="evenodd" clip-rule="evenodd" d="M14.6667 5.83325C14.6667 5.17021 14.4033 4.53433 13.9344 4.06549C13.4656 3.59664 12.8297 3.33325 12.1667 3.33325H8.83333C8.17029 3.33325 7.53441 3.59664 7.06557 4.06549C6.59673 4.53433 6.33333 5.17021 6.33333 5.83325H5.5C4.83696 5.83325 4.20107 6.09664 3.73223 6.56549C3.26339 7.03433 3 7.67021 3 8.33325V14.9999C3 15.663 3.26339 16.2988 3.73223 16.7677C4.20107 17.2365 4.83696 17.4999 5.5 17.4999H15.5C16.163 17.4999 16.7989 17.2365 17.2678 16.7677C17.7366 16.2988 18 15.663 18 14.9999V8.33325C18 7.67021 17.7366 7.03433 17.2678 6.56549C16.7989 6.09664 16.163 5.83325 15.5 5.83325H14.6667ZM12.1667 4.99992H8.83333C8.61232 4.99992 8.40036 5.08772 8.24408 5.244C8.0878 5.40028 8 5.61224 8 5.83325H13C13 5.61224 12.9122 5.40028 12.7559 5.244C12.5996 5.08772 12.3877 4.99992 12.1667 4.99992ZM5.5 7.49992H15.5C15.721 7.49992 15.933 7.58772 16.0893 7.744C16.2455 7.90028 16.3333 8.11224 16.3333 8.33325V14.9999C16.3333 15.2209 16.2455 15.4329 16.0893 15.5892C15.933 15.7455 15.721 15.8333 15.5 15.8333H5.5C5.27899 15.8333 5.06702 15.7455 4.91074 15.5892C4.75446 15.4329 4.66667 15.2209 4.66667 14.9999V8.33325C4.66667 8.11224 4.75446 7.90028 4.91074 7.744C5.06702 7.58772 5.27899 7.49992 5.5 7.49992Z" fill="#9605AC"/>
</svg>
