<svg width="20" height="20" viewBox="0 0 20 20" fill="none" xmlns="http://www.w3.org/2000/svg">
<path fill-rule="evenodd" clip-rule="evenodd" d="M12.5346 3.37601C13.3763 3.71101 13.6338 4.87767 13.978 5.25267C14.3221 5.62767 14.8146 5.75517 15.0871 5.75517C16.5355 5.75517 17.7096 6.92934 17.7096 8.37684V13.206C17.7096 15.1477 16.1346 16.7227 14.193 16.7227H5.80964C3.86714 16.7227 2.29297 15.1477 2.29297 13.206V8.37684C2.29297 6.92934 3.46714 5.75517 4.91547 5.75517C5.18714 5.75517 5.67964 5.62767 6.02464 5.25267C6.3688 4.87767 6.62547 3.71101 7.46714 3.37601C8.30964 3.04101 11.693 3.04101 12.5346 3.37601Z" stroke="#9605AC" stroke-width="1.5" stroke-linecap="round" stroke-linejoin="round"/>
<path d="M14.5809 7.91667H14.5884" stroke="#9605AC" stroke-width="2" stroke-linecap="round" stroke-linejoin="round"/>
<path fill-rule="evenodd" clip-rule="evenodd" d="M12.6499 10.9399C12.6499 9.4766 11.4641 8.29077 10.0007 8.29077C8.5374 8.29077 7.35156 9.4766 7.35156 10.9399C7.35156 12.4033 8.5374 13.5891 10.0007 13.5891C11.4641 13.5891 12.6499 12.4033 12.6499 10.9399Z" stroke="#9605AC" stroke-width="1.5" stroke-linecap="round" stroke-linejoin="round"/>
</svg>
