<svg width="13" height="12" viewBox="0 0 13 12" fill="none" xmlns="http://www.w3.org/2000/svg">
<path d="M3.25 5.3125H7.71875V6H3.25V5.3125ZM3.25 7.03125H8.53125V7.71875H3.25V7.03125Z" fill="#9605AC"/>
<path d="M9.86607 1.875H1.50893C1.32422 1.875 1.14708 1.94743 1.01648 2.07636C0.885873 2.2053 0.8125 2.38016 0.8125 2.5625V9.4375C0.8125 9.61984 0.885873 9.7947 1.01648 9.92364C1.14708 10.0526 1.32422 10.125 1.50893 10.125H9.86607C10.0508 10.125 10.2279 10.0526 10.3585 9.92364C10.4891 9.7947 10.5625 9.61984 10.5625 9.4375V2.5625C10.5625 2.38016 10.4891 2.2053 10.3585 2.07636C10.2279 1.94743 10.0508 1.875 9.86607 1.875ZM9.86607 2.5625V3.25H1.50893V2.5625H9.86607ZM1.50893 9.4375V3.9375H9.86607V9.4375H1.50893Z" fill="#9605AC"/>
</svg>
