<svg width="23" height="23" viewBox="0 0 23 23" fill="none" xmlns="http://www.w3.org/2000/svg">
<path fill-rule="evenodd" clip-rule="evenodd" d="M18.2761 18.2754C15.3473 21.2045 11.0104 21.8373 7.46133 20.196C6.9374 19.9851 6.50786 19.8146 6.0995 19.8146C4.96207 19.8213 3.5463 20.9242 2.81049 20.1893C2.07467 19.4534 3.17839 18.0365 3.17839 16.8922C3.17839 16.4838 3.01466 16.0619 2.80374 15.537C1.16165 11.9885 1.79537 7.65016 4.72418 4.72199C8.46296 0.981829 14.5373 0.981829 18.2761 4.72102C22.0216 8.46696 22.0149 14.5362 18.2761 18.2754Z" stroke="#9605AC" stroke-width="1.5" stroke-linecap="round" stroke-linejoin="round"/>
<path d="M15.2737 11.8959H15.2823" stroke="#9605AC" stroke-width="2" stroke-linecap="round" stroke-linejoin="round"/>
<path d="M11.4319 11.8959H11.4405" stroke="#9605AC" stroke-width="2" stroke-linecap="round" stroke-linejoin="round"/>
<path d="M7.59009 11.8959H7.59871" stroke="#9605AC" stroke-width="2" stroke-linecap="round" stroke-linejoin="round"/>
</svg>
