<svg width="13" height="12" viewBox="0 0 13 12" fill="none" xmlns="http://www.w3.org/2000/svg">
<path d="M11.8593 1.94688C12.214 1.58951 12.214 1.013 11.8593 0.655633C11.5008 0.294355 10.9166 0.294356 10.5581 0.655634L7.06659 4.17411C6.67545 4.56827 6.03808 4.56827 5.64694 4.17411L2.4419 0.944315C2.08339 0.583037 1.49919 0.583036 1.14068 0.944314C0.786047 1.30168 0.786047 1.87819 1.14068 2.23556L4.36649 5.48629C4.7534 5.87618 4.7534 6.50516 4.36649 6.89505L1.51909 9.76444C1.16446 10.1218 1.16446 10.6983 1.51909 11.0557C1.8776 11.417 2.4618 11.417 2.82031 11.0557L5.64694 8.20723C6.03808 7.81307 6.67545 7.81307 7.06659 8.20723L10.1797 11.3444C10.5382 11.7056 11.1224 11.7056 11.4809 11.3444C11.8355 10.987 11.8355 10.4105 11.4809 10.0531L8.34704 6.89505C7.96013 6.50516 7.96013 5.87618 8.34704 5.48629L11.8593 1.94688Z" fill="#9605AC"/>
</svg>
