<svg width="17" height="16" viewBox="0 0 17 16" fill="none" xmlns="http://www.w3.org/2000/svg">
<path d="M4.84233 1.33301C3.97299 1.41901 3.38766 1.61234 2.95033 2.05034C2.16699 2.83501 2.16699 4.09834 2.16699 6.62567V9.30567C2.16699 11.8323 2.16699 13.0963 2.95033 13.8817C3.73366 14.667 4.99499 14.6663 7.51699 14.6663H8.85499C11.377 14.6663 12.6383 14.6663 13.4217 13.8817C14.133 13.1683 14.199 12.0703 14.205 9.98434" stroke="white" stroke-width="1.5" stroke-linecap="round" stroke-linejoin="round"/>
<path d="M7.51682 4.66678L8.18548 7.00011C8.55882 7.74011 9.02748 7.93344 10.1921 8.00011C11.1181 7.97744 11.6555 7.86811 12.1142 7.46944C12.4268 7.19744 12.5681 6.78744 12.6368 6.37944L12.8661 5.00011M14.5381 3.66678V7.00011M6.23348 3.28878C7.29148 2.41078 8.23415 1.93944 10.1895 1.42078C10.4101 1.36254 10.6421 1.36369 10.8621 1.42411C12.5928 1.90011 13.5275 2.32278 14.7795 3.26278C14.8328 3.30278 14.8488 3.37744 14.8115 3.43278C14.4028 4.03411 13.4901 4.52144 11.2515 5.38944C10.7852 5.56886 10.2684 5.56601 9.80415 5.38144C7.42015 4.43478 6.32415 3.92811 6.19082 3.40211C6.18648 3.38112 6.18819 3.35933 6.19574 3.33927C6.2033 3.31921 6.21638 3.3017 6.23348 3.28878Z" stroke="white" stroke-width="1.5" stroke-linecap="round" stroke-linejoin="round"/>
</svg>
