<svg width="14" height="13" viewBox="0 0 14 13" fill="none" xmlns="http://www.w3.org/2000/svg">
<path d="M5.748 9.94479H1.02246" stroke="white" stroke-width="1.5" stroke-linecap="round" stroke-linejoin="round"/>
<path d="M7.85547 2.67525H12.581" stroke="white" stroke-width="1.5" stroke-linecap="round" stroke-linejoin="round"/>
<path fill-rule="evenodd" clip-rule="evenodd" d="M4.54472 2.63469C4.54472 1.66295 3.7511 0.875 2.77236 0.875C1.79362 0.875 1 1.66295 1 2.63469C1 3.60643 1.79362 4.39438 2.77236 4.39438C3.7511 4.39438 4.54472 3.60643 4.54472 2.63469Z" stroke="white" stroke-width="1.5" stroke-linecap="round" stroke-linejoin="round"/>
<path fill-rule="evenodd" clip-rule="evenodd" d="M12.9998 9.91521C12.9998 8.94347 12.2068 8.15552 11.228 8.15552C10.2487 8.15552 9.45508 8.94347 9.45508 9.91521C9.45508 10.8869 10.2487 11.6749 11.228 11.6749C12.2068 11.6749 12.9998 10.8869 12.9998 9.91521Z" stroke="white" stroke-width="1.5" stroke-linecap="round" stroke-linejoin="round"/>
</svg>
