<svg width="57" height="57" viewBox="0 0 57 57" fill="none" xmlns="http://www.w3.org/2000/svg">
<g clip-path="url(#clip0_111_2798)">
<path fill-rule="evenodd" clip-rule="evenodd" d="M27.306 8.6685C24.3906 7.37278 21.2112 6.78146 18.025 6.94238C14.8496 7.10275 11.7562 8.00574 8.99342 9.5786C8.93838 9.60877 8.88513 9.64181 8.83389 9.67752C8.61343 9.83051 8.43775 10.0271 8.31192 10.2488C8.19466 10.4545 8.11791 10.6864 8.09254 10.9334C8.08509 11.0045 8.08198 11.0763 8.08331 11.1482V38.9691C8.08291 38.9907 8.08291 39.0123 8.08331 39.0338V49.4999C8.08331 50.4664 8.86681 51.2499 9.83331 51.2499C10.7998 51.2499 11.5833 50.4664 11.5833 49.4999V40.0496C13.6448 39.0288 15.897 38.44 18.2015 38.3236C20.8391 38.1904 23.4711 38.6799 25.8845 39.7525L29.6939 41.4456C32.6093 42.7413 35.7887 43.3326 38.975 43.1717C42.1612 43.0108 45.2649 42.1021 48.0349 40.5193C48.5801 40.2077 48.9166 39.6279 48.9166 38.9999V11.1142C48.9166 10.4904 48.5846 9.91372 48.045 9.60061C47.5055 9.28749 46.84 9.28527 46.2984 9.59478C44.0054 10.9051 41.4361 11.6573 38.7984 11.7905C36.1608 11.9237 33.5288 11.4342 31.1154 10.3616L27.306 8.6685ZM19.5001 27.5H11.5833V18.5H19.5001V27.5ZM28.5001 27.5H19.5001V34.8071C22.1426 34.8656 24.7528 35.4391 27.1831 36.5H28.5001V37.0849L31.1154 38.2473C33.1324 39.1437 35.302 39.6328 37.5001 39.6916V36.5H45.4166V27.5H37.5001V18.5H45.4166V13.8908C43.3656 14.7008 41.1903 15.1742 38.975 15.286C38.4829 15.3109 37.9909 15.3178 37.5001 15.3069V18.5H28.5001V13.0293L25.8845 11.8668C23.8676 10.9704 21.698 10.4813 19.5001 10.4225V18.5H28.5001V27.5ZM28.5001 27.5H37.5001V36.5H28.5001V27.5Z" fill="#9605AC"/>
</g>
<defs>
<clipPath id="clip0_111_2798">
<rect width="56" height="56" fill="white" transform="translate(0.5 0.5)"/>
</clipPath>
</defs>
</svg>
