<svg width="17" height="16" viewBox="0 0 17 16" fill="none" xmlns="http://www.w3.org/2000/svg">
<path d="M4.49967 12.0001H12.4997M4.49967 9.33343H12.4997M15.1663 5.56676V13.3334C15.1663 13.687 15.0259 14.0262 14.7758 14.2762C14.5258 14.5263 14.1866 14.6668 13.833 14.6668H3.16634C2.81272 14.6668 2.47358 14.5263 2.22353 14.2762C1.97348 14.0262 1.83301 13.687 1.83301 13.3334V5.56676C1.83408 5.30086 1.91463 5.04135 2.06432 4.82158C2.214 4.60181 2.42597 4.43181 2.67301 4.33343L8.00634 2.20009C8.32313 2.07393 8.67622 2.07393 8.99301 2.20009L14.3263 4.33343C14.5734 4.43181 14.7853 4.60181 14.935 4.82158C15.0847 5.04135 15.1653 5.30086 15.1663 5.56676Z" stroke="#9605AC" stroke-width="1.5" stroke-linecap="round" stroke-linejoin="round"/>
<path d="M4.5 6.66699H12.5V14.667H4.5V6.66699Z" stroke="#9605AC" stroke-width="1.5" stroke-linecap="round" stroke-linejoin="round"/>
</svg>
