<svg width="20" height="20" viewBox="0 0 20 20" fill="none" xmlns="http://www.w3.org/2000/svg">
<path fill-rule="evenodd" clip-rule="evenodd" d="M17.6763 6.58258V13.3751C17.6763 15.8917 16.1013 17.6667 13.5846 17.6667H6.3763C3.85964 17.6667 2.29297 15.8917 2.29297 13.3751V6.58258C2.29297 4.06591 3.86797 2.29175 6.3763 2.29175H13.5846C16.1013 2.29175 17.6763 4.06591 17.6763 6.58258Z" stroke="#9605AC" stroke-width="1.5" stroke-linecap="round" stroke-linejoin="round"/>
<path d="M4.40234 13.6924L5.67568 12.3483C6.11818 11.8791 6.85568 11.8566 7.32568 12.2983C7.33984 12.3124 8.10651 13.0916 8.10651 13.0916C8.56901 13.5624 9.32484 13.5699 9.79568 13.1083C9.82651 13.0783 11.7407 10.7566 11.7407 10.7566C12.234 10.1574 13.1198 10.0716 13.7198 10.5658C13.7598 10.5991 15.5682 12.4549 15.5682 12.4549" stroke="#9605AC" stroke-width="1.5" stroke-linecap="round" stroke-linejoin="round"/>
<path fill-rule="evenodd" clip-rule="evenodd" d="M8.59521 7.61084C8.59521 8.41834 7.94104 9.0725 7.13354 9.0725C6.32604 9.0725 5.67188 8.41834 5.67188 7.61084C5.67188 6.80334 6.32604 6.14917 7.13354 6.14917C7.94104 6.15 8.59521 6.80334 8.59521 7.61084Z" stroke="#9605AC" stroke-width="1.5" stroke-linecap="round" stroke-linejoin="round"/>
</svg>
