<svg width="16" height="16" viewBox="0 0 16 16" fill="none" xmlns="http://www.w3.org/2000/svg">
<g clip-path="url(#clip0_400_3582)">
<path d="M5.21429 14.6849H3.35714C2.33147 14.6849 1.5 13.9058 1.5 12.9447V6.78424C1.5 6.27618 1.73691 5.79355 2.14853 5.46294L6.79137 1.73389C7.48687 1.17529 8.51313 1.17529 9.20863 1.73389L13.8515 5.46294C14.2631 5.79355 14.5 6.27618 14.5 6.78424V12.9447C14.5 13.9058 13.6686 14.6849 12.6429 14.6849H10.7857M5.21429 14.6849V9.46427C5.21429 8.98371 5.63003 8.59416 6.14286 8.59416H9.85714C10.37 8.59416 10.7857 8.98371 10.7857 9.46427V14.6849M5.21429 14.6849H10.7857" stroke="#9605AC" stroke-width="1.5" stroke-linecap="round" stroke-linejoin="round"/>
</g>
<defs>
<clipPath id="clip0_400_3582">
<rect width="15" height="15.37" fill="white" transform="translate(0.5 0.314941)"/>
</clipPath>
</defs>
</svg>
