<svg width="24" height="24" viewBox="0 0 24 24" fill="none" xmlns="http://www.w3.org/2000/svg">
<path d="M8.57143 20.37H6.28571C5.02335 20.37 4 19.4161 4 18.2393V10.6965C4 10.0745 4.29158 9.48353 4.79819 9.07874L10.5125 4.51295C11.3685 3.82902 12.6315 3.82902 13.4875 4.51295L19.2018 9.07874C19.7085 9.48353 20 10.0745 20 10.6965V18.2393C20 19.4161 18.9767 20.37 17.7143 20.37H15.4286M8.57143 20.37V13.9779C8.57143 13.3895 9.08311 12.9126 9.71429 12.9126H14.2857C14.9169 12.9126 15.4286 13.3895 15.4286 13.9779V20.37M8.57143 20.37H15.4286" stroke="#9605AC" stroke-width="1.5" stroke-linecap="round" stroke-linejoin="round"/>
</svg>
