<svg width="57" height="56" viewBox="0 0 57 56" fill="none" xmlns="http://www.w3.org/2000/svg">
<g clip-path="url(#clip0_111_2674)">
<path d="M19.1665 13.9997C19.1665 8.84546 23.3455 4.6665 28.4998 4.6665C33.6542 4.6665 37.8332 8.84546 37.8332 13.9997V20.9997M28.4998 39.8761V33.8328M40.1665 48.9993H16.8332C14.2548 48.9993 12.1665 46.911 12.1665 44.3327V25.6663C12.1665 23.088 14.2548 20.9997 16.8332 20.9997H40.1665C42.7448 20.9997 44.8332 23.088 44.8332 25.6663V44.3327C44.8332 46.911 42.7448 48.9993 40.1665 48.9993Z" stroke="#9605AC" stroke-width="3.49998" stroke-linecap="round" stroke-linejoin="round"/>
<path d="M29.7374 30.8456C30.4209 31.529 30.4209 32.637 29.7374 33.3204C29.054 34.0038 27.946 34.0038 27.2626 33.3204C26.5791 32.637 26.5791 31.529 27.2626 30.8456C27.946 30.1622 29.054 30.1622 29.7374 30.8456Z" stroke="#9605AC" stroke-width="3.49998" stroke-linecap="round" stroke-linejoin="round"/>
</g>
<defs>
<clipPath id="clip0_111_2674">
<rect width="56" height="55.9994" fill="white" transform="translate(0.5)"/>
</clipPath>
</defs>
</svg>
