<svg width="17" height="16" viewBox="0 0 17 16" fill="none" xmlns="http://www.w3.org/2000/svg">
<path d="M13.8337 14.666V11.3327C13.8337 10.0753 13.8337 9.44735 13.443 9.05668C13.0523 8.66602 12.4243 8.66602 11.167 8.66602L8.50032 14.666L5.83366 8.66602C4.57633 8.66602 3.94833 8.66602 3.55766 9.05668C3.16699 9.44735 3.16699 10.0753 3.16699 11.3327V14.666" stroke="#9605AC" stroke-width="1.5" stroke-linecap="round" stroke-linejoin="round"/>
<path d="M8.50033 9.99967L8.16699 12.6663L8.50033 13.6663L8.83366 12.6663L8.50033 9.99967ZM8.50033 9.99967L7.83366 8.66634H9.16699L8.50033 9.99967ZM10.8337 4.33301V3.66634C10.8337 3.35992 10.7733 3.05651 10.656 2.77341C10.5388 2.49032 10.3669 2.2331 10.1502 2.01643C9.93357 1.79976 9.67635 1.62788 9.39325 1.51062C9.11016 1.39336 8.80674 1.33301 8.50033 1.33301C8.19391 1.33301 7.89049 1.39336 7.6074 1.51062C7.3243 1.62788 7.06708 1.79976 6.85041 2.01643C6.63374 2.2331 6.46187 2.49032 6.34461 2.77341C6.22735 3.05651 6.16699 3.35992 6.16699 3.66634V4.33301C6.16699 4.63943 6.22735 4.94284 6.34461 5.22594C6.46187 5.50903 6.63374 5.76625 6.85041 5.98292C7.06708 6.19959 7.3243 6.37147 7.6074 6.48873C7.89049 6.60599 8.19391 6.66634 8.50033 6.66634C8.80674 6.66634 9.11016 6.60599 9.39325 6.48873C9.67635 6.37147 9.93357 6.19959 10.1502 5.98292C10.3669 5.76625 10.5388 5.50903 10.656 5.22594C10.7733 4.94284 10.8337 4.63943 10.8337 4.33301Z" stroke="#9605AC" stroke-width="1.5" stroke-linecap="round" stroke-linejoin="round"/>
</svg>
