<svg width="13" height="13" viewBox="0 0 13 13" fill="none" xmlns="http://www.w3.org/2000/svg">
<path d="M6.50033 6.77148C5.99752 6.77148 5.51531 6.97122 5.15977 7.32676C4.80423 7.6823 4.60449 8.16451 4.60449 8.66732C4.60449 9.17012 4.80423 9.65234 5.15977 10.0079C5.51531 10.3634 5.99752 10.5632 6.50033 10.5632C7.00313 10.5632 7.48534 10.3634 7.84088 10.0079C8.19642 9.65234 8.39616 9.17012 8.39616 8.66732C8.39616 8.16451 8.19642 7.6823 7.84088 7.32676C7.48534 6.97122 7.00313 6.77148 6.50033 6.77148ZM5.68783 8.66732C5.68783 8.45183 5.77343 8.24517 5.9258 8.09279C6.07817 7.94042 6.28484 7.85482 6.50033 7.85482C6.71581 7.85482 6.92248 7.94042 7.07485 8.09279C7.22722 8.24517 7.31283 8.45183 7.31283 8.66732C7.31283 8.88281 7.22722 9.08947 7.07485 9.24184C6.92248 9.39421 6.71581 9.47982 6.50033 9.47982C6.28484 9.47982 6.07817 9.39421 5.9258 9.24184C5.77343 9.08947 5.68783 8.88281 5.68783 8.66732Z" fill="#9605AC"/>
<path d="M9.49325 2.77163L7.77129 0.357422L1.43975 5.4155L1.08875 5.41171V5.41713H0.8125V11.9171H12.1875V5.41713H11.6664L10.6297 2.38434L9.49325 2.77163ZM10.5219 5.41713H5.09004L9.13575 4.03805L9.96017 3.77426L10.5219 5.41713ZM8.42292 3.13671L4.24667 4.56021L7.55408 1.91796L8.42292 3.13671ZM1.89583 9.842V7.49117C2.12451 7.41046 2.33223 7.2796 2.50375 7.10817C2.67527 6.93674 2.80625 6.7291 2.88708 6.50046H10.1129C10.1937 6.7292 10.3246 6.93695 10.4962 7.10847C10.6677 7.28 10.8754 7.41095 11.1042 7.49171V9.84255C10.8754 9.92331 10.6677 10.0543 10.4962 10.2258C10.3246 10.3973 10.1937 10.6051 10.1129 10.8338H2.88817C2.80702 10.605 2.67581 10.3973 2.50414 10.2257C2.33246 10.0541 2.12463 9.92303 1.89583 9.842Z" fill="#9605AC"/>
</svg>
