<svg width="21" height="20" viewBox="0 0 21 20" fill="none" xmlns="http://www.w3.org/2000/svg">
<path d="M15.4062 9.08069C16.5688 8.91735 17.4638 7.92069 17.4663 6.71319C17.4663 5.52319 16.5988 4.53652 15.4613 4.34985" stroke="#9605AC" stroke-width="1.5" stroke-linecap="round" stroke-linejoin="round"/>
<path d="M16.9414 11.8752C18.0672 12.0436 18.8531 12.4377 18.8531 13.2502C18.8531 13.8094 18.4831 14.1727 17.8847 14.4011" stroke="#9605AC" stroke-width="1.5" stroke-linecap="round" stroke-linejoin="round"/>
<path fill-rule="evenodd" clip-rule="evenodd" d="M10.4072 12.2198C7.72891 12.2198 5.44141 12.6257 5.44141 14.2465C5.44141 15.8665 7.71474 16.284 10.4072 16.284C13.0856 16.284 15.3722 15.8823 15.3722 14.2607C15.3722 12.639 13.0997 12.2198 10.4072 12.2198Z" stroke="#9605AC" stroke-width="1.5" stroke-linecap="round" stroke-linejoin="round"/>
<path fill-rule="evenodd" clip-rule="evenodd" d="M10.4071 9.90663C12.1646 9.90663 13.5896 8.48246 13.5896 6.72413C13.5896 4.96663 12.1646 3.54163 10.4071 3.54163C8.64963 3.54163 7.22463 4.96663 7.22463 6.72413C7.21797 8.47579 8.63213 9.90079 10.3838 9.90663H10.4071Z" stroke="#9605AC" stroke-width="1.5" stroke-linecap="round" stroke-linejoin="round"/>
<path d="M5.4057 9.08069C4.24237 8.91735 3.3482 7.92069 3.3457 6.71319C3.3457 5.52319 4.2132 4.53652 5.3507 4.34985" stroke="#9605AC" stroke-width="1.5" stroke-linecap="round" stroke-linejoin="round"/>
<path d="M3.87065 11.8752C2.74482 12.0436 1.95898 12.4377 1.95898 13.2502C1.95898 13.8094 2.32898 14.1727 2.92732 14.4011" stroke="#9605AC" stroke-width="1.5" stroke-linecap="round" stroke-linejoin="round"/>
</svg>
