<svg width="16" height="16" viewBox="0 0 16 16" fill="none" xmlns="http://www.w3.org/2000/svg">
<path d="M7.5 16C6.94772 16 6.5 15.5523 6.5 15L6.5 1C6.5 0.447715 6.94772 -6.9814e-08 7.5 5.82813e-09L8.5 1.4279e-07C9.05229 2.18432e-07 9.5 0.447716 9.5 1L9.5 15C9.5 15.5523 9.05228 16 8.5 16L7.5 16Z" fill="#DDD7E0"/>
<path d="M16 8.5C16 9.05228 15.5523 9.5 15 9.5L1 9.5C0.447715 9.5 4.17498e-08 9.05228 9.32508e-08 8.5L1.86502e-07 7.5C2.38003e-07 6.94771 0.447716 6.5 1 6.5L15 6.5C15.5523 6.5 16 6.94772 16 7.5V8.5Z" fill="#DDD7E0"/>
</svg>
