<svg width="13" height="14" viewBox="0 0 13 14" fill="none" xmlns="http://www.w3.org/2000/svg">
<path d="M11.8575 1.64766C11.7523 1.54118 11.6269 1.45671 11.4887 1.39917C11.3504 1.34163 11.2021 1.31217 11.0524 1.3125H7.93114C7.72639 1.31288 7.53006 1.39399 7.38474 1.53823L1.14499 7.7767C0.932077 7.99005 0.8125 8.27916 0.8125 8.58057C0.8125 8.88198 0.932077 9.17109 1.14499 9.38444L4.11569 12.3551C4.3291 12.5681 4.6183 12.6878 4.91981 12.6878C5.22133 12.6878 5.51053 12.5681 5.72393 12.3551L11.9611 6.1192C12.1057 5.97411 12.1871 5.77783 12.1876 5.57305V2.45C12.1885 2.30106 12.1598 2.15342 12.1032 2.01568C12.0465 1.87793 11.963 1.75283 11.8575 1.64766ZM9.75013 4.5625C9.58943 4.5625 9.43234 4.51485 9.29872 4.42557C9.16511 4.33629 9.06097 4.2094 8.99947 4.06093C8.93798 3.91247 8.92189 3.7491 8.95324 3.59149C8.98459 3.43388 9.06197 3.28911 9.1756 3.17548C9.28923 3.06185 9.434 2.98447 9.59161 2.95311C9.74922 2.92176 9.91259 2.93785 10.0611 2.99935C10.2095 3.06085 10.3364 3.16499 10.4257 3.2986C10.515 3.43222 10.5626 3.58931 10.5626 3.75C10.5626 3.96549 10.477 4.17215 10.3246 4.32453C10.1723 4.4769 9.96561 4.5625 9.75013 4.5625Z" fill="#EAD006"/>
</svg>
