<svg width="17" height="16" viewBox="0 0 17 16" fill="none" xmlns="http://www.w3.org/2000/svg">
<g clip-path="url(#clip0_1045_12010)">
<path d="M14.7796 10.62C13.7376 8.99205 11.9506 8.27505 10.7876 9.01905C10.6876 9.08371 10.5953 9.15638 10.5106 9.23705L9.2696 7.29505L12.1366 2.79505C12.3716 2.36205 12.4576 1.84605 12.3436 1.32705C12.2394 0.850133 11.9738 0.423799 11.5916 0.120047L11.3996 -0.00195312L8.0016 5.31205L4.6036 -0.00195312L4.4116 0.120047C4.02022 0.430299 3.75093 0.868768 3.65123 1.35815C3.55152 1.84753 3.62779 2.3564 3.8666 2.79505L6.7336 7.29505L5.4926 9.23705C5.40686 9.15637 5.31417 9.08342 5.2156 9.01905C4.0526 8.27505 2.2656 8.99105 1.2236 10.62C0.181597 12.249 0.279597 14.171 1.4426 14.916C2.6056 15.66 4.3926 14.944 5.4346 13.315L8.0016 9.28605L10.5686 13.315C11.6106 14.943 13.3976 15.66 14.5606 14.916C15.7236 14.172 15.8216 12.249 14.7796 10.62ZM4.1706 12.507C3.7016 13.24 3.0996 13.596 2.6926 13.686C2.5596 13.715 2.3756 13.733 2.2496 13.653C2.1106 13.564 2.0186 13.329 2.0026 13.024C1.9776 12.53 2.1536 11.948 2.4856 11.43C2.9546 10.697 3.5566 10.341 3.9636 10.251C4.0966 10.222 4.2806 10.204 4.4066 10.284C4.5456 10.373 4.6376 10.608 4.6536 10.913C4.6786 11.408 4.5026 11.989 4.1706 12.507ZM8.0006 8.00005C7.86799 8.00005 7.74081 7.94737 7.64704 7.8536C7.55328 7.75983 7.5006 7.63266 7.5006 7.50005C7.5006 7.36744 7.55328 7.24026 7.64704 7.14649C7.74081 7.05273 7.86799 7.00005 8.0006 7.00005C8.13321 7.00005 8.26038 7.05273 8.35415 7.14649C8.44792 7.24026 8.5006 7.36744 8.5006 7.50005C8.5006 7.63266 8.44792 7.75983 8.35415 7.8536C8.26038 7.94737 8.13321 8.00005 8.0006 8.00005ZM13.9986 13.023C13.9826 13.328 13.8906 13.563 13.7516 13.652C13.6266 13.732 13.4416 13.714 13.3086 13.685C12.9016 13.596 12.2996 13.239 11.8306 12.506C11.4986 11.987 11.3226 11.406 11.3476 10.912C11.3636 10.607 11.4556 10.372 11.5946 10.283C11.7196 10.203 11.9046 10.221 12.0376 10.25C12.4446 10.339 13.0466 10.696 13.5156 11.429C13.8476 11.948 14.0236 12.529 13.9986 13.023Z" fill="#9605AC"/>
</g>
<defs>
<clipPath id="clip0_1045_12010">
<rect width="16" height="16" fill="white" transform="translate(0.5)"/>
</clipPath>
</defs>
</svg>
