<svg width="21" height="20" viewBox="0 0 21 20" fill="none" xmlns="http://www.w3.org/2000/svg">
<g clip-path="url(#clip0_400_2955)">
<path d="M19.6086 13.9999H14.7572H16.1932C16.1932 10.0615 17.0855 8.83071 17.424 7.84609V9.5384C17.424 9.96917 17.7317 9.99994 18.0701 9.99994C18.4086 9.99994 18.6547 9.96917 18.6547 9.5384V4.92302C18.6547 4.49225 18.3778 4.46148 18.0701 4.46148C17.7317 4.46148 17.424 4.49225 17.424 4.92302V6.30763C17.424 5.5384 15.3932 5.19994 14.6547 5.10763V3.5384H13.424V5.07686H5.63936C4.43936 5.07686 4.43936 3.84609 4.43936 3.84609V3.5384C4.43936 3.19994 4.16244 3.23071 3.85475 3.23071H3.27013C2.93167 3.23071 2.68552 3.19994 2.68552 3.5384V10.6153C2.68552 10.9538 2.96244 10.923 3.27013 10.923H3.60859C3.94706 10.923 4.19321 10.9538 4.19321 10.6153V9.07686C4.19321 8.76917 4.71629 7.5384 5.91629 7.5384C7.11629 7.5384 10.3471 7.23071 10.9624 7.84609C12.1624 9.07686 10.0086 11.9076 10.0701 13.9999H11.6292H1.39321C1.05475 13.9999 0.808594 14.2769 0.808594 14.6153V16.1538C0.808594 16.4922 1.08552 16.7692 1.39321 16.7692H19.5778C19.9163 16.7692 20.1624 16.4922 20.1624 16.1538V14.6153C20.1932 14.2769 19.9163 13.9999 19.6086 13.9999Z" stroke="white" stroke-width="1.2"/>
</g>
<defs>
<clipPath id="clip0_400_2955">
<rect width="20" height="20" fill="white" transform="translate(0.5)"/>
</clipPath>
</defs>
</svg>
