<svg width="21" height="20" viewBox="0 0 21 20" fill="none" xmlns="http://www.w3.org/2000/svg">
<path d="M6.5 3C5.70435 3 4.94129 3.31607 4.37868 3.87868C3.81607 4.44129 3.5 5.20435 3.5 6V14C3.5 14.7956 3.81607 15.5587 4.37868 16.1213C4.94129 16.6839 5.70435 17 6.5 17H10.1C9.93668 16.6803 9.80505 16.3454 9.707 16H6.5C5.96957 16 5.46086 15.7893 5.08579 15.4142C4.71071 15.0391 4.5 14.5304 4.5 14V10.5H11.225C11.6606 10.0883 12.1605 9.75046 12.705 9.5H4.5V6C4.5 5.46957 4.71071 4.96086 5.08579 4.58579C5.46086 4.21071 5.96957 4 6.5 4H14.5C15.0304 4 15.5391 4.21071 15.9142 4.58579C16.2893 4.96086 16.5 5.46957 16.5 6V9.207C16.8493 9.30633 17.1827 9.43733 17.5 9.6V6C17.5 5.20435 17.1839 4.44129 16.6213 3.87868C16.0587 3.31607 15.2956 3 14.5 3H6.5ZM12.565 11.442C12.637 11.6986 12.657 11.9671 12.6238 12.2315C12.5906 12.496 12.5049 12.7512 12.3716 12.982C12.2384 13.2129 12.0604 13.4148 11.848 13.5759C11.6357 13.7369 11.3932 13.8539 11.135 13.92L10.673 14.038C10.6396 14.376 10.643 14.7167 10.683 15.054L11.033 15.137C11.2981 15.1997 11.5477 15.3159 11.7663 15.4785C11.9849 15.6411 12.168 15.8466 12.3043 16.0825C12.4406 16.3183 12.5273 16.5796 12.5591 16.8502C12.5909 17.1207 12.567 17.395 12.489 17.656L12.362 18.078C12.6207 18.2827 12.899 18.4553 13.197 18.596L13.522 18.252C13.7091 18.0539 13.9347 17.8961 14.185 17.7883C14.4353 17.6805 14.7049 17.625 14.9774 17.6252C15.2499 17.6254 15.5195 17.6813 15.7696 17.7894C16.0198 17.8975 16.2452 18.0556 16.432 18.254L16.769 18.612C17.0623 18.4767 17.3363 18.3107 17.591 18.114L17.435 17.558C17.3628 17.3013 17.3427 17.0328 17.3759 16.7682C17.409 16.5036 17.4947 16.2483 17.6279 16.0173C17.7612 15.7864 17.9392 15.5844 18.1517 15.4232C18.3641 15.2621 18.6067 15.145 18.865 15.079L19.325 14.962C19.3585 14.6236 19.3551 14.2826 19.315 13.945L18.967 13.863C18.7018 13.8003 18.4521 13.6841 18.2334 13.5214C18.0147 13.3588 17.8316 13.1532 17.6952 12.9172C17.5589 12.6812 17.4722 12.4198 17.4405 12.1491C17.4089 11.8784 17.4328 11.6041 17.511 11.343L17.637 10.922C17.3794 10.7176 17.0993 10.5435 16.802 10.403L16.477 10.747C16.29 10.9452 16.0644 11.103 15.8142 11.2109C15.5639 11.3188 15.2943 11.3744 15.0218 11.3743C14.7493 11.3742 14.4797 11.3184 14.2295 11.2104C13.9793 11.1023 13.7539 10.9443 13.567 10.746L13.23 10.388C12.9386 10.5225 12.6633 10.6892 12.409 10.885L12.565 11.442ZM14.999 15.5C14.7338 15.5 14.4794 15.3946 14.2919 15.2071C14.1044 15.0196 13.999 14.7652 13.999 14.5C13.999 14.2348 14.1044 13.9804 14.2919 13.7929C14.4794 13.6054 14.7338 13.5 14.999 13.5C15.2642 13.5 15.5186 13.6054 15.7061 13.7929C15.8936 13.9804 15.999 14.2348 15.999 14.5C15.999 14.7652 15.8936 15.0196 15.7061 15.2071C15.5186 15.3946 15.2642 15.5 14.999 15.5Z" fill="#9605AC"/>
</svg>
