<svg width="22" height="23" viewBox="0 0 22 23" fill="none" xmlns="http://www.w3.org/2000/svg">
<path fill-rule="evenodd" clip-rule="evenodd" d="M12.0122 4.32884L13.6874 7.67536C13.8515 8.00389 14.1684 8.2317 14.5359 8.28442L18.2832 8.82382C19.2091 8.95749 19.5775 10.0796 18.9075 10.7225L16.1977 13.3263C15.9314 13.5824 15.8101 13.9504 15.8731 14.3119L16.5126 17.9879C16.6701 18.8973 15.7023 19.591 14.8747 19.1608L11.5254 17.424C11.1971 17.2537 10.8039 17.2537 10.4746 17.424L7.12525 19.1608C6.29771 19.591 5.32986 18.8973 5.48831 17.9879L6.12686 14.3119C6.18986 13.9504 6.06864 13.5824 5.80233 13.3263L3.09254 10.7225C2.42249 10.0796 2.79092 8.95749 3.71678 8.82382L7.4641 8.28442C7.83158 8.2317 8.14942 8.00389 8.31359 7.67536L9.98776 4.32884C10.402 3.50139 11.598 3.50139 12.0122 4.32884Z" stroke="#EAD006" stroke-width="1.5" stroke-linecap="round" stroke-linejoin="round"/>
</svg>
