<svg width="13" height="14" viewBox="0 0 13 14" fill="none" xmlns="http://www.w3.org/2000/svg">
<path fill-rule="evenodd" clip-rule="evenodd" d="M7.19016 2.11063L8.33229 4.39235C8.44423 4.61635 8.66029 4.77167 8.91084 4.80761L11.4658 5.17538C12.0971 5.26652 12.3483 6.03159 11.8914 6.46996L10.0439 8.24528C9.86229 8.41985 9.77964 8.67081 9.8226 8.91727L10.2586 11.4236C10.366 12.0436 9.70611 12.5167 9.14187 12.2234L6.85826 11.0392C6.63439 10.923 6.36626 10.923 6.14174 11.0392L3.85813 12.2234C3.29389 12.5167 2.634 12.0436 2.74203 11.4236L3.1774 8.91727C3.22036 8.67081 3.13771 8.41985 2.95614 8.24528L1.10855 6.46996C0.651697 6.03159 0.902901 5.26652 1.53417 5.17538L4.08916 4.80761C4.33971 4.77167 4.55642 4.61635 4.66836 4.39235L5.80984 2.11063C6.09228 1.54646 6.90772 1.54646 7.19016 2.11063Z" fill="#EAD006" stroke="#EAD006" stroke-width="1.5" stroke-linecap="round" stroke-linejoin="round"/>
</svg>
