<svg width="19" height="18" viewBox="0 0 19 18" fill="none" xmlns="http://www.w3.org/2000/svg">
<path d="M11 2.25V5.25C11 5.44891 11.079 5.63968 11.2197 5.78033C11.3603 5.92098 11.5511 6 11.75 6H14.75" stroke="#9605AC" stroke-width="1.5" stroke-linecap="round" stroke-linejoin="round"/>
<path d="M13.25 15.75H5.75C5.35218 15.75 4.97064 15.592 4.68934 15.3107C4.40804 15.0294 4.25 14.6478 4.25 14.25V3.75C4.25 3.35218 4.40804 2.97064 4.68934 2.68934C4.97064 2.40804 5.35218 2.25 5.75 2.25H11L14.75 6V14.25C14.75 14.6478 14.592 15.0294 14.3107 15.3107C14.0294 15.592 13.6478 15.75 13.25 15.75Z" stroke="#9605AC" stroke-width="1.5" stroke-linecap="round" stroke-linejoin="round"/>
<path d="M8.75 9.375C8.75 9.07663 8.63147 8.79048 8.42049 8.5795C8.20952 8.36853 7.92337 8.25 7.625 8.25C7.32663 8.25 7.04048 8.36853 6.8295 8.5795C6.61853 8.79048 6.5 9.07663 6.5 9.375V11.625C6.5 11.9234 6.61853 12.2095 6.8295 12.4205C7.04048 12.6315 7.32663 12.75 7.625 12.75C7.92337 12.75 8.20952 12.6315 8.42049 12.4205C8.63147 12.2095 8.75 11.9234 8.75 11.625M10.25 8.25L11.375 12.75L12.5 8.25" stroke="#9605AC" stroke-width="1.5" stroke-linecap="round" stroke-linejoin="round"/>
</svg>
