<svg width="18" height="18" viewBox="0 0 18 18" fill="none" xmlns="http://www.w3.org/2000/svg">
<path d="M10.5 9C10.5 9.39782 10.342 9.77935 10.0607 10.0607C9.77935 10.342 9.39782 10.5 9 10.5C8.60217 10.5 8.22064 10.342 7.93934 10.0607C7.65804 9.77935 7.5 9.39782 7.5 9C7.5 8.60217 7.65804 8.22064 7.93934 7.93934C8.22064 7.65804 8.60217 7.5 9 7.5C9.39782 7.5 9.77935 7.65804 10.0607 7.93934C10.342 8.22064 10.5 8.60217 10.5 9Z" fill="#BCBCBC"/>
<path fill-rule="evenodd" clip-rule="evenodd" d="M9.00019 2.25C4.80619 2.25 1.28269 5.118 0.283691 9C1.28269 12.882 4.80619 15.75 9.00019 15.75C13.1942 15.75 16.7177 12.882 17.7167 9C16.7177 5.118 13.1942 2.25 9.00019 2.25ZM12.0002 9C12.0002 9.79565 11.6841 10.5587 11.1215 11.1213C10.5589 11.6839 9.79584 12 9.00019 12C8.20454 12 7.44148 11.6839 6.87887 11.1213C6.31626 10.5587 6.00019 9.79565 6.00019 9C6.00019 8.20435 6.31626 7.44129 6.87887 6.87868C7.44148 6.31607 8.20454 6 9.00019 6C9.79584 6 10.5589 6.31607 11.1215 6.87868C11.6841 7.44129 12.0002 8.20435 12.0002 9Z" fill="#BCBCBC"/>
</svg>
